<?xml version="1.0" standalone="no"?>
<!DOCTYPE svg PUBLIC "-//W3C//DTD SVG 20010904//EN"
 "http://www.w3.org/TR/2001/REC-SVG-20010904/DTD/svg10.dtd">
<svg version="1.0" xmlns="http://www.w3.org/2000/svg"
 width="352.000000pt" height="292.000000pt" viewBox="0 0 352.000000 292.000000"
 preserveAspectRatio="xMidYMid meet">

<g transform="translate(0.000000,292.000000) scale(0.100000,-0.100000)"
fill="#00b4d8" stroke="none"> <!-- Changed from #000000 to #00b4d8 -->
<path d="M1696 2599 c-28 -4 -82 -24 -122 -43 -91 -46 -159 -118 -235 -252
-31 -54 -215 -373 -409 -709 -193 -335 -361 -632 -372 -660 -25 -63 -34 -184
-19 -255 30 -141 128 -264 259 -327 63 -30 88 -36 163 -41 81 -4 91 -3 133 22
34 20 51 39 72 81 34 71 29 127 -20 200 -46 70 -74 127 -103 210 -31 86 -43
288 -23 387 51 259 234 478 482 577 107 43 180 54 320 49 109 -4 135 -9 228
-41 119 -42 175 -46 236 -18 79 36 128 137 107 219 -17 67 -211 397 -272 464
-63 68 -164 123 -256 138 -68 11 -99 11 -169 -1z"/>
<path d="M2511 1586 c-57 -32 -64 -95 -21 -187 48 -104 70 -207 70 -334 0
-171 -38 -299 -133 -444 -36 -56 -42 -72 -42 -120 1 -73 34 -134 93 -168 40
-24 50 -25 131 -21 75 5 100 11 163 41 165 80 268 242 268 422 -1 124 -12 150
-229 525 -78 135 -155 257 -171 273 -34 30 -88 36 -129 13z"/>
<path d="M1649 1427 c-102 -43 -173 -110 -218 -206 -23 -50 -26 -68 -26 -161
1 -98 3 -109 32 -166 39 -76 106 -142 181 -180 53 -27 65 -29 167 -29 102 0
114 2 168 29 74 38 140 104 180 180 30 57 32 68 32 166 0 93 -3 111 -27 162
-37 80 -107 152 -186 190 -56 28 -78 33 -156 35 -78 3 -99 0 -147 -20z"/>
</g>
</svg>