<?xml version="1.0" encoding="UTF-8"?>
<svg version="1.1" xmlns="http://www.w3.org/2000/svg" width="352" height="292">
<path d="M0 0 C116.16 0 232.32 0 352 0 C352 96.36 352 192.72 352 292 C235.84 292 119.68 292 0 292 C0 195.64 0 99.28 0 0 Z " fill="#F6F6F6" transform="translate(0,0)"/>
<path d="M0 0 C6.95076368 5.92258133 11.18619249 12.81136904 15.5625 20.75 C16.81355481 22.97409744 18.06485578 25.19805644 19.31640625 27.421875 C20.22350342 29.05092773 20.22350342 29.05092773 21.14892578 30.71289062 C23.57964929 35.02933237 26.09914561 39.29104359 28.63256836 43.54785156 C31.45611471 48.61117945 31.58966896 53.33075415 31 59 C29.19943323 65.17182224 25.36902476 69.56382415 20 73 C11.32928439 76.40635256 4.72303795 74.88843079 -3.5625 71.5625 C-21.07840593 64.64652463 -41.40891796 64.85518467 -59.046875 71.68359375 C-69.37400787 76.28709081 -78.02066477 81.93681887 -86 90 C-86.68449219 90.65097656 -87.36898437 91.30195313 -88.07421875 91.97265625 C-101.04611765 105.19940581 -107.43002846 124.00413313 -107.3125 142.25 C-107.30758545 143.16458984 -107.3026709 144.07917969 -107.29760742 145.02148438 C-107.01688606 161.38682009 -102.27660133 176.13561057 -92.671875 189.44140625 C-89.69756018 193.99321982 -89.43757825 198.63690693 -90 204 C-91.9530571 209.76151843 -94.33910716 214.35144684 -99.59765625 217.609375 C-103.76592338 219.3130525 -107.16637906 219.53775293 -111.625 219.5 C-112.81706055 219.49033203 -112.81706055 219.49033203 -114.03320312 219.48046875 C-125.66238499 219.12264777 -134.79119527 214.11206797 -143 206 C-151.77011188 196.0008586 -156.08508643 185.07429954 -156.25 171.8125 C-156.27578125 170.58144531 -156.3015625 169.35039062 -156.328125 168.08203125 C-155.96751036 159.56264261 -152.35238656 152.14322395 -148.1875 144.875 C-147.70958008 144.02373535 -147.23166016 143.1724707 -146.73925781 142.29541016 C-141.81085361 133.56098976 -136.73792292 124.9082612 -131.6640625 116.2578125 C-127.95796591 109.93704594 -124.28574748 103.59712049 -120.625 97.25 C-120.00890869 96.18193115 -119.39281738 95.1138623 -118.75805664 94.01342773 C-113.69858082 85.23184304 -108.6755412 76.42967787 -103.65438843 67.62615967 C-99.42252148 60.2089337 -95.16445573 52.80958005 -90.80444336 45.46679688 C-88.25154965 41.15842179 -85.75037583 36.82297891 -83.26953125 32.47265625 C-82.59977023 31.30089858 -81.92992918 30.12918665 -81.26000977 28.95751953 C-79.95140056 26.66864723 -78.64962277 24.37632147 -77.35131836 22.08154297 C-68.42146732 6.46410166 -59.52374741 -4.04129262 -42.25 -10.375 C-26.6120496 -13.46357648 -12.53092176 -9.837333 0 0 Z " fill="#242021" transform="translate(209,42)"/>
<path d="M0 0 C0.85207031 -0.04898438 1.70414062 -0.09796875 2.58203125 -0.1484375 C7.28912389 0.79721529 9.49079195 4.35076735 12.08203125 8.16015625 C13.03142578 9.78244141 13.03142578 9.78244141 14 11.4375 C14.36544922 12.05890869 14.73089844 12.68031738 15.10742188 13.32055664 C16.479089 15.66546206 17.83420502 18.01944129 19.1875 20.375 C19.79126465 21.42397461 20.3950293 22.47294922 21.01708984 23.55371094 C24.8200264 30.16635554 28.60068913 36.79137687 32.36630249 43.42533875 C34.26056238 46.75863031 36.17492666 50.07889699 38.11328125 53.38671875 C45.85511943 66.65216845 49.38861518 78.53090403 46.53125 93.90625 C43.15847295 106.11802896 36.46589505 116.74091629 25.51171875 123.39257812 C15.39794 129.09917491 4.74607611 131.6112676 -6.8125 129.375 C-11.86198111 127.40499117 -14.6064156 124.15547999 -17.3125 119.5625 C-19.57158704 114.22376066 -19.95860047 109.35298236 -17.859375 103.8984375 C-16.23324244 100.57412853 -14.40715787 97.3941521 -12.54296875 94.19921875 C-4.99785546 81.09706965 -1.41329891 68.06462786 -1.5 53 C-1.50491455 51.98703857 -1.5098291 50.97407715 -1.51489258 49.93041992 C-1.67311724 39.84055498 -3.22106464 23.96643536 -10.8125 16.375 C-11.36669529 11.46900888 -11.55369722 7.58562213 -8.9375 3.3125 C-5.89372878 0.53729682 -4.0439031 0.1576334 0 0 Z " fill="#242021" transform="translate(256.8125,131.625)"/>
<path d="M0 0 C8.58762997 5.1984867 15.03944174 13.32232606 18 23 C19.46005992 36.90330997 17.8559749 48.29950145 9.16796875 59.51953125 C2.09286782 67.61446655 -7.6025935 72.26610901 -18.32421875 73.203125 C-29.55318457 73.42584829 -39.61742624 69.77411829 -48.0078125 62.18359375 C-57.50670669 52.00620711 -59.67319579 41.04505259 -59.41015625 27.6015625 C-59.04152524 21.16703562 -56.59973196 16.27073918 -53 11 C-52.55527344 10.32710937 -52.11054688 9.65421875 -51.65234375 8.9609375 C-39.66580369 -6.90462865 -16.56919033 -9.74804162 0 0 Z " fill="#242021" transform="translate(199,152)"/>
</svg>
